<svg width="108" height="78" viewBox="0 0 108 78" fill="none" xmlns="http://www.w3.org/2000/svg">
<path d="M25.5156 77.4C10.4156 77.4 0.415625 64.3 0.415625 38.7C0.415625 13.2 10.4156 0.699998 25.5156 0.699998C40.5156 0.699998 50.5156 13.2 50.5156 38.7C50.5156 64.3 40.5156 77.4 25.5156 77.4ZM25.5156 65.9C31.9156 65.9 36.6156 59.5 36.6156 38.7C36.6156 18 31.9156 12 25.5156 12C19.1156 12 14.3156 18 14.3156 38.7C14.3156 59.5 19.1156 65.9 25.5156 65.9ZM63.1 76V64.1H79.1V17.3H65.6V8.2C73.1 6.8 78.1 4.9 82.9 2H93.8V64.1H107.7V76H63.1Z" fill="#004A2F"/>
</svg>
