<svg width="108" height="108" viewBox="0 0 108 108" fill="none" xmlns="http://www.w3.org/2000/svg">
<g filter="url(#filter0_d_93_4448)">
<circle cx="54" cy="50" r="50" fill="#F3F3F3"/>
<circle cx="54" cy="50" r="48.5" stroke="#004A2F" stroke-width="3"/>
</g>
<path d="M43.7224 60.0067L46.1848 64.3929C41.7217 64.7777 37.8741 65.5472 37.8741 65.5472C37.8741 65.5472 34.3344 50.4649 37.1816 48.1563C40.0287 45.8478 36.1043 30.8424 36.1043 30.8424C36.1043 30.8424 46.8774 33.151 50.1862 29.8421C53.0334 26.918 71.3477 30.6116 71.3477 30.6116C71.3477 30.6116 73.8101 40.7691 71.3477 46.3095C68.8853 51.9269 72.1941 62.8539 72.1941 62.8539C72.1941 62.8539 67.3462 65.6242 63.1139 66.3167V62.0844V56.2362V53.8507C63.1139 52.8503 62.2675 52.0039 61.2671 52.0039C60.2668 52.0039 59.4203 52.8503 59.4203 53.8507V51.1574C59.4203 50.1571 58.5739 49.3106 57.5735 49.3106C57.0348 49.3106 56.5731 49.5415 56.2653 49.8493C55.9575 50.1571 55.7267 50.6188 55.7267 51.1574V49.0028C55.7267 48.0024 54.8802 47.156 53.8799 47.156C53.3412 47.156 52.8795 47.3868 52.5717 47.6946C52.2639 48.0024 52.033 48.4642 52.033 49.0028V51.6961C52.033 50.6957 51.1866 49.8493 50.1862 49.8493C49.6476 49.8493 49.1859 50.0801 48.8781 50.3879C48.5703 50.6957 48.3394 51.1574 48.3394 51.6961V56.2362V59.622L46.7235 57.3135C46.0309 56.544 44.7997 56.544 44.1071 57.3135C42.8759 58.083 42.8759 59.3142 43.7224 60.0067Z" fill="#F3F3F3"/>
<path d="M49.8015 49.8493C50.8019 49.8493 51.6484 50.6958 51.6484 51.6961V49.0028C51.6484 48.4642 51.8792 48.0025 52.187 47.6947C52.4948 47.3869 52.9565 47.156 53.4952 47.156C54.4955 47.156 55.342 48.0025 55.342 49.0028V51.1575C55.342 50.6188 55.5728 50.1571 55.8806 49.8493C56.1884 49.5415 56.6502 49.3106 57.1888 49.3106C58.1892 49.3106 59.0356 50.1571 59.0356 51.1575V53.8507C59.0356 52.8504 59.8821 52.0039 60.8824 52.0039C61.8828 52.0039 62.7293 52.8504 62.7293 53.8507V56.2362V62.0845V66.3168V66.8554C62.7293 68.9331 61.0363 71.1647 58.8817 71.1647H51.4945C49.7246 71.1647 48.1856 69.3948 47.8008 67.7019L45.8771 64.2391L43.6455 60.0068C42.876 59.3142 42.876 58.083 43.6455 57.3905C44.338 56.621 45.5693 56.621 46.2618 57.3905L47.8778 59.699V56.3132V51.7731C47.8778 51.2344 48.1086 50.7727 48.4164 50.4649C48.8781 50.0802 49.3398 49.8493 49.8015 49.8493Z" fill="#F3F3F3"/>
<path d="M59.3436 58.8525C58.805 58.8525 58.3433 58.3908 58.3433 57.8521V53.8507C58.3433 53.312 58.805 52.8503 59.3436 52.8503C59.8823 52.8503 60.344 53.312 60.344 53.8507V57.8521C60.267 58.3908 59.8823 58.8525 59.3436 58.8525Z" fill="#ED8F25"/>
<path d="M55.496 56.1592C54.9573 56.1592 54.4956 55.6975 54.4956 55.1589V51.1574C54.4956 50.6188 54.9573 50.1571 55.496 50.1571C56.0346 50.1571 56.4963 50.6188 56.4963 51.1574V55.1589C56.4963 55.7745 56.0346 56.1592 55.496 56.1592Z" fill="#ED8F25"/>
<path d="M51.8021 56.6979C51.2635 56.6979 50.8018 56.2362 50.8018 55.6975V51.6961C50.8018 51.1574 51.2635 50.6957 51.8021 50.6957C52.3408 50.6957 52.8025 51.1574 52.8025 51.6961V55.6975C52.7255 56.3131 52.3408 56.6979 51.8021 56.6979Z" fill="#ED8F25"/>
<path d="M63.0369 67.317C62.5752 67.317 62.1905 67.0092 62.1135 66.5475C62.0366 66.0089 62.3444 65.5472 62.883 65.4702C65.9611 64.9316 69.5777 63.2387 70.9629 62.5461C70.2703 59.9298 68.1157 51.0804 70.3472 46.0786C72.271 41.6155 70.8859 33.7665 70.4242 31.6119C69.0391 31.3811 65.3455 30.6885 61.6518 30.3037C52.9564 29.3034 51.1865 30.3807 50.8787 30.6885C49.3397 32.2275 46.2617 32.9201 41.9524 32.6892C40.1826 32.6123 38.6436 32.3814 37.4124 32.2275C37.7202 33.6896 38.2588 36.0751 38.6436 38.6914C39.7978 46.3865 38.6436 48.3102 37.7202 49.0797C37.4893 49.2336 36.412 50.5418 37.3354 57.7751C37.7202 60.5454 38.2588 63.2386 38.5666 64.6238C39.9517 64.3929 42.9528 63.9312 46.1078 63.6234C46.6464 63.5465 47.1081 63.9312 47.1851 64.4699C47.262 65.0085 46.8773 65.4702 46.3386 65.5472C41.9524 65.9319 38.1049 66.7014 38.1049 66.7014C37.5663 66.7784 37.1045 66.4706 36.9506 66.0089C36.9506 65.855 36.0272 62.1613 35.4886 58.0829C34.4882 50.3109 35.5655 48.3872 36.4889 47.6176C36.7198 47.4637 37.7971 46.1556 36.7198 38.9992C36.1811 35.0747 35.1808 31.3811 35.1808 31.3041C35.1038 30.9963 35.1808 30.6115 35.4116 30.3807C35.6425 30.1498 35.9503 30.0729 36.335 30.0729C36.335 30.0729 39.0283 30.6115 42.0294 30.7654C45.723 30.9963 48.4163 30.4577 49.4936 29.3803C50.417 28.4569 52.6486 27.3796 61.9596 28.38C66.8845 28.9186 71.5015 29.8421 71.5015 29.8421C71.8863 29.919 72.1941 30.2268 72.271 30.5346C72.348 30.9963 74.7334 41.0768 72.1941 46.8481C69.8855 52.0808 73.0405 62.623 73.1175 62.7769C73.2714 63.2386 73.0405 63.7003 72.6558 63.8542C72.4249 63.9312 67.577 66.7014 63.2678 67.394C63.1908 67.317 63.1139 67.317 63.0369 67.317Z" fill="#ED8F25"/>
<path d="M59.2664 72.2419H51.8792C49.5707 72.2419 47.7238 70.1642 47.1852 68.2405L42.876 60.5454C42.3373 60.0837 42.1064 59.3911 42.1064 58.6986C42.1064 57.9291 42.4142 57.2365 42.9529 56.6979C43.4916 56.1592 44.1841 55.8514 44.9536 55.8514C45.7231 55.8514 46.4157 56.1592 46.9543 56.6209V51.6961C46.9543 50.9266 47.2621 50.234 47.8008 49.6953C48.3394 49.1567 49.032 48.8489 49.8015 48.8489C50.1093 48.8489 50.4171 48.9258 50.7249 49.0028C50.7249 48.2333 51.0327 47.5407 51.5714 47.0021C52.11 46.4634 52.8026 46.1556 53.5721 46.1556C54.9572 46.1556 56.1115 47.156 56.3423 48.4641C56.6501 48.3872 56.9579 48.3102 57.2657 48.3102C58.8047 48.3102 60.1129 49.5414 60.1129 51.1574C60.4207 51.0805 60.7285 51.0035 61.0363 51.0035C62.5753 51.0035 63.8835 52.3117 63.8835 53.8507V66.8553C64.0374 69.3947 61.9597 72.2419 59.2664 72.2419ZM45.0306 57.7752C44.7997 57.7752 44.5689 57.8521 44.415 58.006C44.2611 58.1599 44.1841 58.3908 44.1841 58.6216C44.1841 58.8525 44.2611 59.0833 44.415 59.2372C44.4919 59.3142 44.5689 59.3911 44.5689 59.4681L49.032 67.317C49.109 67.394 49.109 67.471 49.109 67.5479C49.4168 68.8561 50.648 70.2412 51.8792 70.2412H59.2664C60.8824 70.2412 62.1136 68.3944 62.1136 66.8553V53.8507C62.1136 53.312 61.7289 52.9273 61.1902 52.9273C60.6516 52.9273 60.2668 53.312 60.2668 53.8507C60.2668 54.3893 59.8051 54.8511 59.2664 54.8511C58.7278 54.8511 58.2661 54.3893 58.2661 53.8507V51.1574C58.2661 50.6187 57.8813 50.234 57.3427 50.234C57.1118 50.234 56.881 50.311 56.7271 50.4649C56.5732 50.6188 56.4962 50.8496 56.4962 51.0804C56.4962 51.6191 56.0345 52.0808 55.4959 52.0808C54.9572 52.0808 54.6494 51.6961 54.6494 51.2344V49.0797C54.6494 48.5411 54.2647 48.1563 53.726 48.1563C53.4951 48.1563 53.2643 48.2333 53.1104 48.3872C52.9565 48.5411 52.8795 48.7719 52.8795 49.0028V51.6961C52.8795 52.2347 52.4178 52.6964 51.8792 52.6964C51.3405 52.6964 50.8788 52.2347 50.8788 51.6961C50.8788 51.1574 50.4941 50.7727 49.9554 50.7727C49.7246 50.7727 49.4937 50.8496 49.3398 51.0035C49.1859 51.1574 49.109 51.3883 49.109 51.6191V59.545C49.109 59.9298 48.8012 60.3145 48.4164 60.4684C48.0316 60.6223 47.5699 60.4684 47.3391 60.0837L45.8001 57.8521C45.4153 57.8521 45.2614 57.7752 45.0306 57.7752Z" fill="#ED8F25"/>
<path d="M45.8774 37.1524C43.5689 37.1524 41.7221 36.6137 41.5682 36.5368C41.0295 36.3829 40.7987 35.8442 40.9526 35.3055C41.1065 34.7669 41.6451 34.5361 42.1838 34.69C42.2607 34.69 47.2625 36.229 51.1101 33.8435C55.5732 31.0733 59.7285 33.7665 59.8824 33.8435C60.3441 34.1513 60.4211 34.69 60.1902 35.1517C59.8824 35.6134 59.3438 35.6903 58.8821 35.4595C58.7282 35.3825 55.5732 33.3818 52.1104 35.4595C50.0327 36.7676 47.8012 37.1524 45.8774 37.1524Z" fill="#ED8F25"/>
<path d="M47.5698 40.4612C46.1077 40.4612 45.0304 40.1534 44.9534 40.0765C44.4148 39.9226 44.1839 39.3839 44.3378 38.8453C44.4917 38.3066 45.0304 38.0758 45.569 38.2297C45.646 38.2297 48.3393 39.0761 50.4939 37.7679C53.2641 35.9981 56.0343 37.691 56.1113 37.7679C56.573 38.0757 56.6499 38.6144 56.4191 39.0761C56.1113 39.5378 55.5726 39.6148 55.1109 39.3839C55.034 39.307 53.3411 38.3066 51.6481 39.3839C50.1091 40.2304 48.724 40.4612 47.5698 40.4612Z" fill="#ED8F25"/>
<defs>
<filter id="filter0_d_93_4448" x="0" y="0" width="108" height="108" filterUnits="userSpaceOnUse" color-interpolation-filters="sRGB">
<feFlood flood-opacity="0" result="BackgroundImageFix"/>
<feColorMatrix in="SourceAlpha" type="matrix" values="0 0 0 0 0 0 0 0 0 0 0 0 0 0 0 0 0 0 127 0" result="hardAlpha"/>
<feOffset dy="4"/>
<feGaussianBlur stdDeviation="2"/>
<feComposite in2="hardAlpha" operator="out"/>
<feColorMatrix type="matrix" values="0 0 0 0 0 0 0 0 0 0 0 0 0 0 0 0 0 0 0.25 0"/>
<feBlend mode="normal" in2="BackgroundImageFix" result="effect1_dropShadow_93_4448"/>
<feBlend mode="normal" in="SourceGraphic" in2="effect1_dropShadow_93_4448" result="shape"/>
</filter>
</defs>
</svg>
