<svg width="108" height="108" viewBox="0 0 108 108" fill="none" xmlns="http://www.w3.org/2000/svg">
<g filter="url(#filter0_d_93_4477)">
<circle cx="54" cy="50" r="50" fill="#F3F3F3"/>
<circle cx="54" cy="50" r="48.5" stroke="#004A2F" stroke-width="3"/>
</g>
<path d="M37.4936 42.4101C38.5709 42.4101 39.4174 43.2566 39.4174 44.3339C39.4174 45.4112 38.5709 46.2577 37.4936 46.2577C36.4163 46.2577 35.5698 45.4112 35.5698 44.3339C35.5698 43.2566 36.4163 42.4101 37.4936 42.4101Z" fill="#FFE6B4"/>
<path d="M70.0442 35.7154C71.3523 35.7154 72.4296 36.7927 72.4296 38.1009C72.4296 39.409 71.3523 40.4863 70.0442 40.4863C68.736 40.4863 67.6587 39.409 67.6587 38.1009C67.6587 36.7927 68.6591 35.7154 70.0442 35.7154Z" fill="#FFE6B4"/>
<path d="M56.8857 28.0203V31.8679H55.9623H53.0382H52.1147V28.0203H56.8857Z" fill="#F3F3F3"/>
<path d="M53.0378 31.8679H55.9619H56.8854H60.8099V36.6388H48.1899V31.8679H52.1144H53.0378Z" fill="#FFE6B4"/>
<path d="M66.8118 60.8783C66.8118 64.9567 66.4271 68.8042 65.8115 72.267H43.4188C42.8032 68.8042 42.4185 64.9567 42.4185 60.8783C42.4185 50.6439 44.727 41.7176 48.1898 36.6388H60.8866C64.2725 41.6406 66.8118 50.6439 66.8118 60.8783ZM60.8866 61.6478C61.2714 60.2627 61.4253 58.6467 61.4253 57.0308C61.4253 52.8754 60.0402 49.2587 58.0394 47.1811H50.883C48.9593 49.1818 47.6511 52.8754 47.6511 57.0308C47.6511 58.6467 47.882 60.2627 48.1898 61.6478H60.8866Z" fill="#F3F3F3"/>
<path d="M47.6514 57.0308C47.6514 52.8754 48.9595 49.2587 50.8833 47.1811H58.0397C59.9635 49.1818 61.4255 52.8754 61.4255 57.0308C61.4255 58.6467 61.1947 60.2627 60.8869 61.6478H48.19C47.8822 60.2627 47.6514 58.6467 47.6514 57.0308Z" fill="#FFE6B4"/>
<path d="M65.7351 73.1904H43.4194C42.9577 73.1904 42.5729 72.8826 42.496 72.4209C41.8034 68.7272 41.4956 64.8797 41.4956 60.8783C41.4956 50.7977 43.7272 41.5636 47.4978 36.1001C47.6517 35.8693 47.9595 35.7154 48.2673 35.7154C48.8059 35.7154 49.2676 36.1771 49.2676 36.7158C49.2676 37.0236 49.1137 37.2544 48.9598 37.4083C45.4971 42.4101 43.3424 51.1825 43.3424 60.8783C43.3424 64.495 43.6502 67.9577 44.1889 71.2666H64.9656C65.5812 67.9577 65.889 64.418 65.889 60.8783C65.889 51.4903 63.6574 42.4101 60.0407 37.2544C59.7329 36.7927 59.8868 36.2541 60.2716 35.9462C60.7333 35.6384 61.2719 35.7923 61.5797 36.1771C63.3496 38.7934 64.8886 42.4101 66.0429 46.6424C67.1971 51.0286 67.7358 55.9534 67.7358 60.9552C67.7358 64.9567 67.428 68.8811 66.7354 72.4978C66.5815 72.8826 66.1968 73.1904 65.7351 73.1904Z" fill="#ED8F25"/>
<path d="M60.887 62.6481H48.267C47.8053 62.6481 47.4206 62.3403 47.3436 61.9556C46.9589 60.4166 46.728 58.8006 46.728 57.1077C46.728 52.8754 48.0362 48.9509 50.1908 46.6424C50.3447 46.4885 50.6525 46.3346 50.8834 46.3346H58.0398C58.2706 46.3346 58.5784 46.4115 58.7323 46.6424C60.9639 48.9509 62.349 53.0293 62.349 57.1077C62.349 58.8006 62.1182 60.4166 61.7334 61.9556C61.7334 62.3403 61.3487 62.6481 60.887 62.6481ZM49.0365 60.7244H60.1175C60.3483 59.5701 60.5022 58.3389 60.5022 57.0307C60.5022 53.568 59.4249 50.2591 57.655 48.1814H51.3451C49.6522 50.1821 48.6518 53.491 48.6518 57.0307C48.6518 58.2619 48.7287 59.4932 49.0365 60.7244Z" fill="#ED8F25"/>
<path d="M60.8102 37.6391H48.1903C47.6517 37.6391 47.1899 37.1774 47.1899 36.6388V31.7909C47.1899 31.2522 47.6517 30.7905 48.1903 30.7905H52.0378C52.5765 30.7905 53.0382 31.2522 53.0382 31.7909C53.0382 32.3295 52.5765 32.7913 52.0378 32.7913H49.1137V35.7154H59.8099V32.7913H56.8857C56.3471 32.7913 55.8854 32.3295 55.8854 31.7909C55.8854 31.2522 56.3471 30.7905 56.8857 30.7905H60.7333C61.2719 30.7905 61.7336 31.2522 61.7336 31.7909V36.6388C61.8106 37.1774 61.3489 37.6391 60.8102 37.6391Z" fill="#ED8F25"/>
<path d="M56.8857 32.7913H51.9608C51.4222 32.7913 50.9604 32.3295 50.9604 31.7909V27.9434C50.9604 27.4047 51.4222 26.943 51.9608 26.943H56.8857C57.4243 26.943 57.886 27.4047 57.886 27.9434V31.7909C57.886 32.3295 57.4243 32.7913 56.8857 32.7913ZM53.0381 30.8675H55.9622V28.9437H53.0381V30.8675Z" fill="#ED8F25"/>
<path d="M55.9623 34.715C55.4236 34.715 54.9619 34.2533 54.9619 33.7147V31.7909C54.9619 31.2522 55.4236 30.7905 55.9623 30.7905C56.5009 30.7905 56.9626 31.2522 56.9626 31.7909V33.7147C56.8857 34.2533 56.424 34.715 55.9623 34.715Z" fill="#ED8F25"/>
<path d="M53.0384 34.715C52.4998 34.715 52.0381 34.2533 52.0381 33.7147V31.7909C52.0381 31.2522 52.4998 30.7905 53.0384 30.7905C53.5771 30.7905 54.0388 31.2522 54.0388 31.7909V33.7147C54.0388 34.2533 53.5771 34.715 53.0384 34.715Z" fill="#ED8F25"/>
<path d="M55.9623 54.9531H48.1903C47.6517 54.9531 47.1899 54.4913 47.1899 53.9527C47.1899 53.414 47.6517 52.9523 48.1903 52.9523H55.9623C56.501 52.9523 56.9627 53.414 56.9627 53.9527C56.9627 54.4913 56.424 54.9531 55.9623 54.9531Z" fill="#ED8F25"/>
<path d="M60.8101 58.8006H52.1146C51.576 58.8006 51.1143 58.3389 51.1143 57.8002C51.1143 57.2616 51.576 56.7999 52.1146 56.7999H60.887C61.4257 56.7999 61.8874 57.2616 61.8874 57.8002C61.8874 58.3389 61.3487 58.8006 60.8101 58.8006Z" fill="#ED8F25"/>
<path d="M37.4939 47.258C35.878 47.258 34.5698 45.9498 34.5698 44.3338C34.5698 42.7179 35.878 41.4097 37.4939 41.4097C39.1099 41.4097 40.4181 42.7179 40.4181 44.3338C40.4181 45.9498 39.1099 47.258 37.4939 47.258ZM37.4939 43.4104C36.9553 43.4104 36.4936 43.8721 36.4936 44.4108C36.4936 44.9494 36.9553 45.4111 37.4939 45.4111C38.0326 45.4111 38.4943 44.9494 38.4943 44.4108C38.4943 43.8721 38.0326 43.4104 37.4939 43.4104Z" fill="#ED8F25"/>
<path d="M70.0445 41.4867C68.1977 41.4867 66.6587 39.9476 66.6587 38.1008C66.6587 36.254 68.1977 34.715 70.0445 34.715C71.8913 34.715 73.4303 36.254 73.4303 38.1008C73.4303 39.9476 71.8913 41.4867 70.0445 41.4867ZM70.0445 36.6388C69.275 36.6388 68.5825 37.2544 68.5825 38.1008C68.5825 38.9473 69.1981 39.5629 70.0445 39.5629C70.891 39.5629 71.5066 38.9473 71.5066 38.1008C71.5066 37.2544 70.814 36.6388 70.0445 36.6388Z" fill="#ED8F25"/>
<defs>
<filter id="filter0_d_93_4477" x="0" y="0" width="108" height="108" filterUnits="userSpaceOnUse" color-interpolation-filters="sRGB">
<feFlood flood-opacity="0" result="BackgroundImageFix"/>
<feColorMatrix in="SourceAlpha" type="matrix" values="0 0 0 0 0 0 0 0 0 0 0 0 0 0 0 0 0 0 127 0" result="hardAlpha"/>
<feOffset dy="4"/>
<feGaussianBlur stdDeviation="2"/>
<feComposite in2="hardAlpha" operator="out"/>
<feColorMatrix type="matrix" values="0 0 0 0 0 0 0 0 0 0 0 0 0 0 0 0 0 0 0.25 0"/>
<feBlend mode="normal" in2="BackgroundImageFix" result="effect1_dropShadow_93_4477"/>
<feBlend mode="normal" in="SourceGraphic" in2="effect1_dropShadow_93_4477" result="shape"/>
</filter>
</defs>
</svg>
