<svg width="108" height="108" viewBox="0 0 108 108" fill="none" xmlns="http://www.w3.org/2000/svg">
<g filter="url(#filter0_d_93_4523)">
<circle cx="54" cy="50" r="50" fill="#F3F3F3"/>
<circle cx="54" cy="50" r="48.5" stroke="#004A2F" stroke-width="3"/>
</g>
<path d="M67.4895 31.5703C68.7976 31.5703 69.8749 32.6476 69.8749 33.9558C69.8749 35.2639 68.7976 36.3412 67.4895 36.3412C66.1813 36.3412 65.104 35.2639 65.104 33.9558C65.104 32.6476 66.1813 31.5703 67.4895 31.5703Z" fill="#F3F3F3"/>
<path d="M53.4077 39.2654C54.485 39.2654 55.3314 40.1118 55.3314 41.1891C55.3314 42.2665 54.485 43.1129 53.4077 43.1129C52.3303 43.1129 51.4839 42.2665 51.4839 41.1891C51.4839 40.1118 52.3303 39.2654 53.4077 39.2654Z" fill="#F3F3F3"/>
<path d="M47.6362 33.9558V55.5789H47.2515H45.1738H44.7891V33.9558C44.7891 33.1863 45.4047 32.4937 46.2511 32.4937C46.6359 32.4937 47.0206 32.6476 47.2515 32.9554C47.4823 33.1863 47.6362 33.571 47.6362 33.9558Z" fill="#F3F3F3"/>
<path d="M49.5595 57.9644V59.5034H42.7109V57.9644C42.7109 56.6562 43.7882 55.6559 45.0195 55.6559H47.0971C48.5592 55.6559 49.5595 56.6562 49.5595 57.9644Z" fill="#F3F3F3"/>
<path d="M71.337 48.4994C71.7217 48.8842 71.8756 49.3459 71.8756 49.8846C71.8756 50.9619 71.0292 51.8083 69.9518 51.8083H52.561C52.0223 51.8083 51.5606 51.5775 51.1759 51.2697C50.7911 50.8849 50.6372 50.4232 50.6372 49.8846C50.6372 48.8072 51.4837 47.9608 52.561 47.9608H70.0288C70.5675 47.9608 71.0292 48.1147 71.337 48.4994Z" fill="#F3F3F3"/>
<path d="M57.3318 63.3509H58.3321V59.5034H53.869L52.4839 51.8083H70.0287L68.1818 61.735L67.0276 68.1219H57.3318V63.3509Z" fill="#F3F3F3"/>
<path d="M57.3318 63.3509V68.1219H55.4081H35.0161V63.3509H54.7155H57.3318Z" fill="#F3F3F3"/>
<path d="M58.3325 59.5034V63.3509H57.3322H54.7158H35.0165H34.0161V59.5034H42.7885H49.5602H53.8694H58.3325Z" fill="#F3F3F3"/>
<path d="M49.5601 60.4269C49.0215 60.4269 48.5598 59.9651 48.5598 59.4265V57.8875C48.5598 57.118 47.9442 56.5024 47.1747 56.5024C46.636 56.5024 46.1743 56.0407 46.1743 55.502C46.1743 54.9633 46.636 54.5016 47.1747 54.5016C49.0215 54.5016 50.4835 55.9637 50.4835 57.8105V59.3495C50.5605 59.9651 50.0988 60.4269 49.5601 60.4269Z" fill="#ED8F25"/>
<path d="M42.7884 60.4269C42.2498 60.4269 41.7881 59.9652 41.7881 59.4265V57.8875C41.7881 56.0407 43.2502 54.5786 45.097 54.5786C45.6356 54.5786 46.0973 55.0403 46.0973 55.579C46.0973 56.1176 45.6356 56.5793 45.097 56.5793C44.3275 56.5793 43.7119 57.1949 43.7119 57.9644V59.5035C43.7119 59.9652 43.3271 60.4269 42.7884 60.4269Z" fill="#ED8F25"/>
<path d="M47.6364 56.5793H44.7123C44.1736 56.5793 43.7119 56.1176 43.7119 55.5789V33.9558C43.7119 32.6476 44.7892 31.5703 46.0974 31.5703C46.713 31.5703 47.3286 31.8012 47.7903 32.2629C48.252 32.7246 48.4829 33.3402 48.4829 33.9558V55.5789C48.6368 56.1176 48.1751 56.5793 47.6364 56.5793ZM45.6357 54.6555H46.636V33.9558C46.636 33.8019 46.5591 33.648 46.4821 33.648C46.4052 33.571 46.2513 33.4941 46.1743 33.4941C45.9435 33.4941 45.7126 33.7249 45.7126 33.9558V54.6555H45.6357Z" fill="#ED8F25"/>
<path d="M67.0277 69.1223H57.3319C56.7932 69.1223 56.3315 68.6606 56.3315 68.1219C56.3315 67.5833 56.7932 67.1215 57.3319 67.1215H66.2582L69.0284 51.5775C69.1054 51.0388 69.644 50.731 70.1057 50.808C70.6444 50.8849 70.9522 51.4236 70.8752 51.8853L67.9511 68.2758C67.8741 68.7375 67.4894 69.1223 67.0277 69.1223Z" fill="#ED8F25"/>
<path d="M53.8693 60.4268C53.4076 60.4268 53.0229 60.119 52.9459 59.6573L51.4839 51.9623C51.4069 51.4236 51.7147 50.9619 52.2534 50.808C52.792 50.731 53.2537 51.0388 53.4076 51.5775L54.8697 59.2726C54.9466 59.8112 54.6388 60.2729 54.1002 60.4268C54.0232 60.4268 53.9463 60.4268 53.8693 60.4268Z" fill="#ED8F25"/>
<path d="M58.3324 64.2744H57.3321C56.7934 64.2744 56.3317 63.8126 56.3317 63.274C56.3317 62.7353 56.7934 62.2736 57.3321 62.2736V60.4268H35.0163V62.3506C35.555 62.3506 36.0167 62.8123 36.0167 63.3509C36.0167 63.8896 35.555 64.3513 35.0163 64.3513H34.016C33.4773 64.3513 33.0156 63.8896 33.0156 63.3509V59.5034C33.0156 58.9648 33.4773 58.5031 34.016 58.5031H58.3324C58.8711 58.5031 59.3328 58.9648 59.3328 59.5034V63.3509C59.2558 63.8127 58.8711 64.2744 58.3324 64.2744Z" fill="#ED8F25"/>
<path d="M57.3322 69.1223H35.0165C34.4778 69.1223 34.0161 68.6606 34.0161 68.1219V63.274C34.0161 62.7354 34.4778 62.2737 35.0165 62.2737H57.4091C57.9478 62.2737 58.4095 62.7354 58.4095 63.274V68.1219C58.3325 68.6606 57.8708 69.1223 57.3322 69.1223ZM35.9399 67.1985H56.4088V64.2744H35.9399V67.1985Z" fill="#ED8F25"/>
<path d="M70.0291 52.7318H52.5613C51.7918 52.7318 51.0993 52.424 50.4837 51.8853C49.945 51.3467 49.6372 50.5771 49.6372 49.8076C49.6372 48.1917 50.9454 46.8835 52.5613 46.8835H70.0291C70.7987 46.8835 71.4912 47.1913 72.1068 47.73C72.6455 48.2686 72.9533 49.0381 72.9533 49.8076C72.8763 51.4236 71.5682 52.7318 70.0291 52.7318ZM52.4844 48.8842C51.9457 48.8842 51.484 49.3459 51.484 49.8846C51.484 50.1154 51.561 50.3463 51.7918 50.5771C51.9457 50.731 52.2535 50.8849 52.4844 50.8849H69.9522C70.4908 50.8849 70.9526 50.4232 70.9526 49.8846C70.9526 49.6537 70.8756 49.4229 70.6447 49.192C70.4139 48.9612 70.183 48.8842 69.9522 48.8842H52.4844Z" fill="#ED8F25"/>
<path d="M71.0294 64.0435C69.952 64.0435 68.9517 63.6588 68.1822 62.9662L67.6435 62.4275L59.7176 55.3481C59.3328 54.9633 59.2559 54.3477 59.6407 53.963C60.0254 53.5782 60.641 53.5013 61.0258 53.886L69.4903 61.5041C70.029 61.9658 70.7216 62.1967 71.4911 62.0428C72.6453 61.8889 73.4918 60.8885 73.4918 59.7343C73.4918 59.4265 73.4148 59.1187 73.2609 58.8109L72.0297 55.9637C71.7989 55.502 72.0297 54.8864 72.5684 54.7325C73.0301 54.5016 73.6457 54.7325 73.7996 55.2711L75.0308 58.1183C75.2616 58.657 75.4155 59.1956 75.4155 59.8112C75.4155 61.8889 73.8765 63.7357 71.7989 64.0435C71.4911 64.0435 71.2602 64.0435 71.0294 64.0435Z" fill="#ED8F25"/>
<path d="M53.4075 44.1133C51.7916 44.1133 50.4834 42.8051 50.4834 41.1891C50.4834 39.5732 51.7916 38.265 53.4075 38.265C55.0235 38.265 56.3317 39.5732 56.3317 41.1891C56.4086 42.8051 55.1004 44.1133 53.4075 44.1133ZM53.4075 40.2657C52.8689 40.2657 52.4072 40.7274 52.4072 41.2661C52.4072 41.8047 52.8689 42.2665 53.4075 42.2665C53.9462 42.2665 54.4079 41.8047 54.4079 41.2661C54.4848 40.7274 53.9462 40.2657 53.4075 40.2657Z" fill="#ED8F25"/>
<path d="M37.4021 52.7318C36.0939 52.7318 35.0166 51.6545 35.0166 50.3463C35.0166 49.0382 36.0939 47.9608 37.4021 47.9608C38.7102 47.9608 39.7875 49.0382 39.7875 50.3463C39.8645 51.6545 38.7872 52.7318 37.4021 52.7318ZM37.4021 49.8846C37.1712 49.8846 36.9404 50.1155 36.9404 50.3463C36.9404 50.5772 37.1712 50.808 37.4021 50.808C37.6329 50.808 37.8638 50.5772 37.8638 50.3463C37.8638 50.1155 37.6329 49.8846 37.4021 49.8846Z" fill="#ED8F25"/>
<path d="M67.4894 37.3416C65.6425 37.3416 64.1035 35.8026 64.1035 33.9558C64.1035 32.109 65.6425 30.57 67.4894 30.57C69.3362 30.57 70.8752 32.109 70.8752 33.9558C70.8752 35.8026 69.4131 37.3416 67.4894 37.3416ZM67.4894 32.5707C66.7198 32.5707 66.0273 33.1863 66.0273 34.0328C66.0273 34.8792 66.6429 35.4948 67.4894 35.4948C68.3358 35.4948 68.9514 34.8792 68.9514 34.0328C68.9514 33.1863 68.3358 32.5707 67.4894 32.5707Z" fill="#ED8F25"/>
<defs>
<filter id="filter0_d_93_4523" x="0" y="0" width="108" height="108" filterUnits="userSpaceOnUse" color-interpolation-filters="sRGB">
<feFlood flood-opacity="0" result="BackgroundImageFix"/>
<feColorMatrix in="SourceAlpha" type="matrix" values="0 0 0 0 0 0 0 0 0 0 0 0 0 0 0 0 0 0 127 0" result="hardAlpha"/>
<feOffset dy="4"/>
<feGaussianBlur stdDeviation="2"/>
<feComposite in2="hardAlpha" operator="out"/>
<feColorMatrix type="matrix" values="0 0 0 0 0 0 0 0 0 0 0 0 0 0 0 0 0 0 0.25 0"/>
<feBlend mode="normal" in2="BackgroundImageFix" result="effect1_dropShadow_93_4523"/>
<feBlend mode="normal" in="SourceGraphic" in2="effect1_dropShadow_93_4523" result="shape"/>
</filter>
</defs>
</svg>
