<svg width="16" height="16" viewBox="0 0 16 16" fill="none" xmlns="http://www.w3.org/2000/svg">
<g clip-path="url(#clip0_147_3)">
<path d="M0.292786 0.293081C0.480314 0.10561 0.734622 0.000294724 0.999786 0.000294724C1.26495 0.000294724 1.51926 0.10561 1.70679 0.293081L7.99979 6.58608L14.2928 0.293081C14.385 0.197571 14.4954 0.121389 14.6174 0.0689798C14.7394 0.0165708 14.8706 -0.0110155 15.0034 -0.0121693C15.1362 -0.0133231 15.2678 0.0119786 15.3907 0.0622595C15.5136 0.11254 15.6253 0.186793 15.7192 0.280686C15.8131 0.374579 15.8873 0.486231 15.9376 0.609127C15.9879 0.732024 16.0132 0.863703 16.012 0.996482C16.0109 1.12926 15.9833 1.26048 15.9309 1.38249C15.8785 1.50449 15.8023 1.61483 15.7068 1.70708L9.41379 8.00008L15.7068 14.2931C15.8889 14.4817 15.9897 14.7343 15.9875 14.9965C15.9852 15.2587 15.88 15.5095 15.6946 15.6949C15.5092 15.8803 15.2584 15.9855 14.9962 15.9878C14.734 15.99 14.4814 15.8892 14.2928 15.7071L7.99979 9.41408L1.70679 15.7071C1.51818 15.8892 1.26558 15.99 1.00339 15.9878C0.741189 15.9855 0.490376 15.8803 0.304968 15.6949C0.11956 15.5095 0.0143908 15.2587 0.0121124 14.9965C0.00983399 14.7343 0.110628 14.4817 0.292786 14.2931L6.58579 8.00008L0.292786 1.70708C0.105315 1.51955 0 1.26525 0 1.00008C0 0.734917 0.105315 0.480609 0.292786 0.293081Z" fill="white"/>
</g>
<defs>
<clipPath id="clip0_147_3">
<rect width="16" height="16" fill="white"/>
</clipPath>
</defs>
</svg>
