<svg width="30" height="30" viewBox="0 0 30 30" fill="none" xmlns="http://www.w3.org/2000/svg">
<g clip-path="url(#clip0_35_1327)">
<path d="M30 15.0911C30 6.80684 23.2843 0.091114 15 0.091114C6.71572 0.091114 0 6.80684 0 15.0911C0 22.578 5.48531 28.7836 12.6562 29.9089V19.4271H8.84766V15.0911H12.6562V11.7864C12.6562 8.02705 14.8956 5.95049 18.322 5.95049C19.9631 5.95049 21.6797 6.24346 21.6797 6.24346V9.93486H19.7882C17.9249 9.93486 17.3438 11.0911 17.3438 12.2773V15.0911H21.5039L20.8389 19.4271H17.3438V29.9089C24.5147 28.7836 30 22.578 30 15.0911Z" fill="#004A2F"/>
</g>
<defs>
<clipPath id="clip0_35_1327">
<rect width="30" height="30" fill="white"/>
</clipPath>
</defs>
</svg>
