<svg width="30" height="30" viewBox="0 0 30 30" fill="none" xmlns="http://www.w3.org/2000/svg">
<g clip-path="url(#clip0_30_47)">
<path d="M30 15.0913C30 6.80703 23.2843 0.0913086 15 0.0913086C6.71572 0.0913086 0 6.80703 0 15.0913C0 22.5782 5.48531 28.7838 12.6562 29.9091V19.4272H8.84766V15.0913H12.6562V11.7866C12.6562 8.02725 14.8956 5.95068 18.322 5.95068C19.9631 5.95068 21.6797 6.24365 21.6797 6.24365V9.93506H19.7882C17.9249 9.93506 17.3438 11.0913 17.3438 12.2775V15.0913H21.5039L20.8389 19.4272H17.3438V29.9091C24.5147 28.7838 30 22.5782 30 15.0913Z" fill="white"/>
</g>
<defs>
<clipPath id="clip0_30_47">
<rect width="30" height="30" fill="white"/>
</clipPath>
</defs>
</svg>
