<svg width="48" height="48" viewBox="0 0 48 48" fill="none" xmlns="http://www.w3.org/2000/svg">
<g clip-path="url(#clip0_8_44)">
<path d="M48 20V38C47.9968 40.6512 46.9422 43.1929 45.0676 45.0676C43.1929 46.9422 40.6512 47.9968 38 48H10C7.34881 47.9968 4.80712 46.9422 2.93244 45.0676C1.05776 43.1929 0.00317572 40.6512 0 38L0 16C0.00317572 13.3488 1.05776 10.8071 2.93244 8.93244C4.80712 7.05776 7.34881 6.00318 10 6H26C26.5304 6 27.0391 6.21071 27.4142 6.58579C27.7893 6.96086 28 7.46957 28 8C28 8.53043 27.7893 9.03914 27.4142 9.41421C27.0391 9.78929 26.5304 10 26 10H10C8.91242 10.003 7.84624 10.3026 6.91623 10.8664C5.98623 11.4303 5.2276 12.2371 4.722 13.2L19.756 28.236C20.8834 29.3581 22.4093 29.9881 24 29.9881C25.5907 29.9881 27.1166 29.3581 28.244 28.236L35.886 20.6C36.2632 20.2357 36.7684 20.0341 37.2928 20.0387C37.8172 20.0432 38.3188 20.2535 38.6896 20.6244C39.0605 20.9952 39.2708 21.4968 39.2753 22.0212C39.2799 22.5456 39.0783 23.0508 38.714 23.428L31.072 31.072C29.1945 32.944 26.6513 33.9953 24 33.9953C21.3487 33.9953 18.8055 32.944 16.928 31.072L4 18.142V38C4 39.5913 4.63214 41.1174 5.75736 42.2426C6.88258 43.3679 8.4087 44 10 44H38C39.5913 44 41.1174 43.3679 42.2426 42.2426C43.3679 41.1174 44 39.5913 44 38V20C44 19.4696 44.2107 18.9609 44.5858 18.5858C44.9609 18.2107 45.4696 18 46 18C46.5304 18 47.0391 18.2107 47.4142 18.5858C47.7893 18.9609 48 19.4696 48 20ZM34 10H38V14C38 14.5304 38.2107 15.0391 38.5858 15.4142C38.9609 15.7893 39.4696 16 40 16C40.5304 16 41.0391 15.7893 41.4142 15.4142C41.7893 15.0391 42 14.5304 42 14V10H46C46.5304 10 47.0391 9.78929 47.4142 9.41421C47.7893 9.03914 48 8.53043 48 8C48 7.46957 47.7893 6.96086 47.4142 6.58579C47.0391 6.21071 46.5304 6 46 6H42V2C42 1.46957 41.7893 0.960859 41.4142 0.585786C41.0391 0.210714 40.5304 0 40 0C39.4696 0 38.9609 0.210714 38.5858 0.585786C38.2107 0.960859 38 1.46957 38 2V6H34C33.4696 6 32.9609 6.21071 32.5858 6.58579C32.2107 6.96086 32 7.46957 32 8C32 8.53043 32.2107 9.03914 32.5858 9.41421C32.9609 9.78929 33.4696 10 34 10Z" fill="white"/>
</g>
<defs>
<clipPath id="clip0_8_44">
<rect width="48" height="48" fill="white"/>
</clipPath>
</defs>
</svg>
