<svg width="49" height="48" viewBox="0 0 49 48" fill="none" xmlns="http://www.w3.org/2000/svg">
<g clip-path="url(#clip0_8_46)">
<path d="M37.058 26.894L24.498 39.396L11.942 26.896L0.614014 33.692L24.5 48.024L48.386 33.692L37.058 26.894ZM34.4 4.1C31.758 1.456 28.242 0 24.502 0C20.762 0 17.246 1.456 14.602 4.1C9.14401 9.558 9.14401 18.44 14.618 23.914L24.502 33.58L34.4 23.898C37.044 21.254 38.502 17.738 38.502 13.998C38.502 10.258 37.044 6.746 34.4 4.1ZM24.502 19.98C21.188 19.98 18.502 17.294 18.502 13.98C18.502 10.666 21.188 7.98 24.502 7.98C27.816 7.98 30.502 10.666 30.502 13.98C30.502 17.294 27.816 19.98 24.502 19.98Z" fill="white"/>
</g>
<defs>
<clipPath id="clip0_8_46">
<rect width="48" height="48" fill="white" transform="translate(0.5)"/>
</clipPath>
</defs>
</svg>
