<svg width="48" height="48" viewBox="0 0 48 48" fill="none" xmlns="http://www.w3.org/2000/svg">
<g clip-path="url(#clip0_8_40)">
<path d="M34 20.078C26.282 20.078 20 26.358 20 34.078C20 41.754 26.282 48 34 48C41.718 48 48 41.72 48 34C48 26.324 41.718 20.078 34 20.078ZM34 44C28.486 44 24 39.548 24 34.078C24 28.564 28.486 24.078 34 24.078C39.514 24.078 44 28.53 44 34C44 39.514 39.514 44 34 44ZM37.414 34.586C38.196 35.368 38.196 36.632 37.414 37.414C37.024 37.804 36.512 38 36 38C35.488 38 34.976 37.804 34.586 37.414L32.586 35.414C32.21 35.038 32 34.53 32 34V30C32 28.896 32.894 28 34 28C35.106 28 36 28.896 36 30V33.172L37.414 34.586ZM48 14V18C48 19.104 47.106 20 46 20C44.894 20 44 19.104 44 18V14C44 10.692 41.308 8 38 8H10C6.692 8 4 10.692 4 14V16H22C23.104 16 24 16.896 24 18C24 19.104 23.104 20 22 20H4V38C4 41.308 6.692 44 10 44H18C19.104 44 20 44.896 20 46C20 47.104 19.104 48 18 48H10C4.486 48 0 43.514 0 38V14C0 8.486 4.486 4 10 4H12V2C12 0.896 12.896 0 14 0C15.104 0 16 0.896 16 2V4H32V2C32 0.896 32.894 0 34 0C35.106 0 36 0.896 36 2V4H38C43.514 4 48 8.486 48 14Z" fill="white"/>
</g>
<defs>
<clipPath id="clip0_8_40">
<rect width="48" height="48" fill="white"/>
</clipPath>
</defs>
</svg>
