<svg width="30" height="30" viewBox="0 0 30 30" fill="none" xmlns="http://www.w3.org/2000/svg">
<g clip-path="url(#clip0_35_1321)">
<circle cx="15" cy="15" r="15" fill="#004A2F"/>
<path d="M20.8705 9.71906C20.8705 6.47578 18.2418 3.84703 14.998 3.84703C11.7543 3.84703 9.12598 6.47578 9.12598 9.71906C9.12598 14.3658 14.998 21.2414 14.998 21.2414C14.998 21.2414 20.8705 14.3419 20.8705 9.71906ZM12.1021 9.36844C12.1021 7.76859 13.3991 6.47203 14.9985 6.47203C16.5979 6.47203 17.8949 7.76859 17.8949 9.36844C17.8949 10.9683 16.5979 12.2648 14.9985 12.2648C13.3991 12.2648 12.1021 10.9683 12.1021 9.36844Z" fill="white"/>
<path d="M14.9983 10.7925C15.7848 10.7925 16.4223 10.1549 16.4223 9.36844C16.4223 8.58195 15.7848 7.94437 14.9983 7.94437C14.2118 7.94437 13.5742 8.58195 13.5742 9.36844C13.5742 10.1549 14.2118 10.7925 14.9983 10.7925Z" fill="white"/>
<path d="M18.3185 19.1991C17.8399 19.8905 17.3908 20.4933 17.0168 20.977C20.7274 21.1997 23.1593 22.0008 24.0639 22.597C23.0041 23.2959 19.8546 24.2784 14.9993 24.2784C10.1439 24.2784 6.99441 23.2955 5.93457 22.597C6.83926 22.0013 9.26926 21.2006 12.9761 20.9775C12.6011 20.4938 12.1516 19.8914 11.6725 19.2C7.10645 19.6495 3.79004 21.0005 3.79004 22.5966C3.79004 24.5606 8.80895 26.1534 14.9993 26.1534C21.19 26.1534 26.208 24.5611 26.208 22.5966C26.2089 20.9995 22.8888 19.6481 18.3185 19.1991Z" fill="white"/>
</g>
<defs>
<clipPath id="clip0_35_1321">
<rect width="30" height="30" fill="white"/>
</clipPath>
</defs>
</svg>
