<svg width="30" height="30" viewBox="0 0 30 30" fill="none" xmlns="http://www.w3.org/2000/svg">
<g clip-path="url(#clip0_30_41)">
<circle cx="15" cy="15" r="15" fill="white"/>
<path d="M20.8711 9.7192C20.8711 6.47592 18.2423 3.84717 14.9986 3.84717C11.7548 3.84717 9.12653 6.47592 9.12653 9.7192C9.12653 14.3659 14.9986 21.2415 14.9986 21.2415C14.9986 21.2415 20.8711 14.342 20.8711 9.7192ZM12.1026 9.36858C12.1026 7.76873 13.3997 6.47217 14.999 6.47217C16.5984 6.47217 17.8954 7.76873 17.8954 9.36858C17.8954 10.9684 16.5984 12.265 14.999 12.265C13.3997 12.265 12.1026 10.9684 12.1026 9.36858Z" fill="#004A2F"/>
<path d="M14.9986 10.7925C15.7851 10.7925 16.4226 10.1549 16.4226 9.3684C16.4226 8.58191 15.7851 7.94434 14.9986 7.94434C14.2121 7.94434 13.5745 8.58191 13.5745 9.3684C13.5745 10.1549 14.2121 10.7925 14.9986 10.7925Z" fill="#004A2F"/>
<path d="M18.3187 19.1992C17.8401 19.8906 17.3911 20.4934 17.017 20.9772C20.7276 21.1998 23.1595 22.0009 24.0642 22.5972C23.0043 23.2961 19.8548 24.2786 14.9995 24.2786C10.1442 24.2786 6.99466 23.2956 5.93481 22.5972C6.8395 22.0014 9.2695 21.2008 12.9764 20.9777C12.6014 20.4939 12.1518 19.8916 11.6728 19.2002C7.10669 19.6497 3.79028 21.0006 3.79028 22.5967C3.79028 24.5608 8.80919 26.1536 14.9995 26.1536C21.1903 26.1536 26.2083 24.5613 26.2083 22.5967C26.2092 20.9997 22.889 19.6483 18.3187 19.1992Z" fill="#004A2F"/>
</g>
<defs>
<clipPath id="clip0_30_41">
<rect width="30" height="30" fill="white"/>
</clipPath>
</defs>
</svg>
