<svg width="30" height="30" viewBox="0 0 30 30" fill="none" xmlns="http://www.w3.org/2000/svg">
<g clip-path="url(#clip0_35_1317)">
<path d="M25.6073 4.39348C22.8919 1.67818 19.1392 0 15.0041 0C10.8608 0 7.10766 1.67818 4.3926 4.39348C1.68545 7.10971 0 10.8637 0 14.9998C0 19.1446 1.68545 22.8902 4.3926 25.6065C7.10766 28.3221 10.8608 30 15.0041 30C19.1391 30 22.8919 28.3221 25.6073 25.6065C28.3143 22.8902 30 19.1446 30 14.9998C30 10.8637 28.3143 7.10971 25.6073 4.39348Z" fill="#004A2F"/>
<path fill-rule="evenodd" clip-rule="evenodd" d="M16.2243 9.85078C15.8924 9.80877 15.4689 9.66768 15.3942 10.1079C15.3113 10.5646 15.7843 10.5318 16.0916 10.598C18.1842 11.0551 18.8982 11.802 19.247 13.8292C19.2632 13.9124 19.272 14.0201 19.272 14.1114C19.2968 14.3522 19.3549 14.5679 19.7201 14.5019C19.9029 14.4768 19.9693 14.3774 19.9776 14.2363C20.0026 14.1114 19.9776 13.9452 19.9943 13.8292C20.0026 11.8768 18.3003 10.1079 16.2243 9.85078ZM16.4156 11.4536C16.1997 11.4536 15.9836 11.4784 15.9007 11.7112C15.776 12.0434 16.0337 12.1345 16.2908 12.176C17.1462 12.3008 17.5947 12.7993 17.686 13.6296C17.6942 13.7459 17.7359 13.8373 17.7856 13.9124C17.8604 13.9947 17.9516 14.0284 18.0679 14.0201C18.1425 14.0201 18.2006 13.9947 18.2503 13.9701C18.3918 13.8621 18.4165 13.6628 18.4 13.4551C18.4166 12.517 17.3371 11.4284 16.4156 11.4536ZM20.7498 18.0314C20.3264 17.6989 19.8612 17.4001 19.4296 17.0927C18.5412 16.4946 17.7275 16.4455 17.0715 17.4166C16.6979 17.9651 16.1745 17.9899 15.635 17.7488C14.1321 17.0927 12.9779 16.0712 12.2971 14.5679C12.1973 14.3354 12.1311 14.1114 12.1226 13.9038C12.0976 13.505 12.2637 13.1565 12.7123 12.8489C13.0858 12.6081 13.451 12.3173 13.4262 11.7774C13.3931 11.0716 11.6492 8.72104 10.9521 8.46334C10.6695 8.36361 10.3872 8.38049 10.0966 8.46334C8.47742 9.00287 7.8132 10.2992 8.45245 11.8354C8.81779 12.6995 9.20814 13.505 9.67308 14.2606C11.6577 17.5829 14.5803 20.0083 18.3502 21.5945C18.6075 21.7025 18.8982 21.7525 19.0558 21.7856C20.1104 21.8022 21.3391 20.7973 21.6963 19.8169C22.0451 18.862 21.3146 18.4968 20.7498 18.0314ZM15.5605 8.93731C18.9395 9.4517 20.4923 11.0296 20.9239 14.3606C20.9239 14.394 20.9239 14.4189 20.9239 14.4431C20.9491 14.7505 20.8911 15.1495 21.2977 15.1495C21.655 15.1579 21.6716 14.8921 21.6716 14.6345C21.655 14.5434 21.655 14.4686 21.655 14.394C21.6964 11.2457 18.8983 8.32266 15.66 8.22264C15.4026 8.26406 14.9043 8.05641 14.863 8.59629C14.8544 8.95389 15.2779 8.90356 15.5605 8.93731Z" fill="white"/>
</g>
<defs>
<clipPath id="clip0_35_1317">
<rect width="30" height="30" fill="white"/>
</clipPath>
</defs>
</svg>
