<svg width="30" height="30" viewBox="0 0 30 30" fill="none" xmlns="http://www.w3.org/2000/svg">
<g clip-path="url(#clip0_30_37)">
<path d="M25.6073 4.39348C22.8919 1.67818 19.1392 0 15.0041 0C10.8608 0 7.10766 1.67818 4.3926 4.39348C1.68545 7.10971 0 10.8637 0 14.9998C0 19.1446 1.68545 22.8902 4.3926 25.6065C7.10766 28.3221 10.8608 30 15.0041 30C19.1391 30 22.8919 28.3221 25.6073 25.6065C28.3143 22.8902 30 19.1446 30 14.9998C30 10.8637 28.3143 7.10971 25.6073 4.39348Z" fill="white"/>
<path fill-rule="evenodd" clip-rule="evenodd" d="M16.2245 9.85102C15.8925 9.80901 15.469 9.66791 15.3944 10.1081C15.3114 10.5649 15.7844 10.532 16.0917 10.5983C18.1843 11.0553 18.8983 11.8023 19.2471 13.8295C19.2633 13.9126 19.2721 14.0203 19.2721 14.1117C19.2969 14.3524 19.355 14.5681 19.7202 14.5021C19.903 14.477 19.9694 14.3776 19.9777 14.2365C20.0027 14.1117 19.9777 13.9454 19.9944 13.8295C20.0027 11.8771 18.3004 10.1081 16.2245 9.85102ZM16.4157 11.4538C16.1998 11.4538 15.9838 11.4786 15.9008 11.7114C15.7762 12.0437 16.0338 12.1348 16.2909 12.1762C17.1463 12.3011 17.5948 12.7995 17.6861 13.6298C17.6943 13.7461 17.7361 13.8376 17.7857 13.9127C17.8605 13.9949 17.9517 14.0286 18.068 14.0204C18.1426 14.0204 18.2008 13.9949 18.2504 13.9703C18.392 13.8623 18.4166 13.663 18.4001 13.4553C18.4167 12.5173 17.3372 11.4287 16.4157 11.4538ZM20.7499 18.0316C20.3265 17.6991 19.8614 17.4004 19.4297 17.093C18.5414 16.4948 17.7276 16.4457 17.0717 17.4169C16.698 17.9653 16.1746 17.9902 15.6351 17.749C14.1322 17.093 12.978 16.0715 12.2973 14.5681C12.1974 14.3356 12.1312 14.1117 12.1227 13.904C12.0978 13.5052 12.2638 13.1568 12.7124 12.8491C13.0859 12.6083 13.4512 12.3175 13.4264 11.7776C13.3933 11.0718 11.6493 8.72127 10.9522 8.46358C10.6696 8.36385 10.3873 8.38073 10.0967 8.46358C8.47754 9.00311 7.81332 10.2994 8.45258 11.8356C8.81791 12.6997 9.20826 13.5052 9.6732 14.2608C11.6578 17.5831 14.5804 20.0085 18.3503 21.5947C18.6076 21.7027 18.8983 21.7527 19.0559 21.7859C20.1106 21.8024 21.3392 20.7975 21.6964 19.8171C22.0452 18.8623 21.3147 18.497 20.7499 18.0316ZM15.5606 8.93754C18.9396 9.45194 20.4924 11.0299 20.924 14.3608C20.924 14.3942 20.924 14.4191 20.924 14.4434C20.9492 14.7507 20.8912 15.1498 21.2979 15.1498C21.6552 15.1581 21.6717 14.8924 21.6717 14.6347C21.6552 14.5436 21.6552 14.4688 21.6552 14.3943C21.6965 11.2459 18.8984 8.32289 15.6601 8.22287C15.4027 8.2643 14.9044 8.05664 14.8631 8.59653C14.8545 8.95413 15.278 8.90379 15.5606 8.93754Z" fill="#004A2F"/>
</g>
<defs>
<clipPath id="clip0_30_37">
<rect width="30" height="30" fill="white"/>
</clipPath>
</defs>
</svg>
