<svg width="48" height="48" viewBox="0 0 48 48" fill="none" xmlns="http://www.w3.org/2000/svg">
<path d="M41 4H17.324C16.198 1.638 13.786 0 11 0H7C3.14 0 0 3.14 0 7V48H48V11C48 7.14 44.86 4 41 4ZM6 7C6 6.45 6.45 6 7 6H11C11.55 6 12 6.45 12 7V32H6V7ZM6 42V38H18V10H28V16H42V42H6ZM38 25C38 26.656 36.656 28 35 28C33.344 28 32 26.656 32 25C32 23.344 33.344 22 35 22C36.656 22 38 23.344 38 25ZM28 25C28 26.656 26.656 28 25 28C23.344 28 22 26.656 22 25C22 23.344 23.344 22 25 22C26.656 22 28 23.344 28 25ZM38 35C38 36.656 36.656 38 35 38C33.344 38 32 36.656 32 35C32 33.344 33.344 32 35 32C36.656 32 38 33.344 38 35ZM28 35C28 36.656 26.656 38 25 38C23.344 38 22 36.656 22 35C22 33.344 23.344 32 25 32C26.656 32 28 33.344 28 35Z" fill="white"/>
</svg>
